<mxfile host="app.diagrams.net" modified="2021-07-18T02:33:17.432Z" agent="5.0 (Macintosh; Intel Mac OS X 10_16_0) AppleWebKit/537.36 (KHTML, like Gecko) Chrome/81.0.4044.138 Safari/537.36" etag="qTilHB9s32e3hjB3EhB2" version="14.8.5" type="github">
  <diagram id="Z4AKtYrA0xERn5aJpjcW" name="Page-1">
    <mxGraphModel dx="1186" dy="607" grid="1" gridSize="10" guides="1" tooltips="1" connect="1" arrows="1" fold="1" page="1" pageScale="1" pageWidth="827" pageHeight="1169" math="0" shadow="0">
      <root>
        <mxCell id="0" />
        <mxCell id="1" parent="0" />
        <mxCell id="TtOdsmfDPJnBqmSysK0O-18" value="alt" style="shape=umlFrame;whiteSpace=wrap;html=1;" parent="1" vertex="1">
          <mxGeometry x="120" y="160" width="360" height="270" as="geometry" />
        </mxCell>
        <mxCell id="TtOdsmfDPJnBqmSysK0O-3" value="" style="shape=umlLifeline;participant=umlActor;perimeter=lifelinePerimeter;whiteSpace=wrap;html=1;container=1;collapsible=0;recursiveResize=0;verticalAlign=top;spacingTop=36;outlineConnect=0;" parent="1" vertex="1">
          <mxGeometry x="70" y="110" width="20" height="350" as="geometry" />
        </mxCell>
        <mxCell id="TtOdsmfDPJnBqmSysK0O-4" value="Application" style="shape=umlLifeline;perimeter=lifelinePerimeter;whiteSpace=wrap;html=1;container=1;collapsible=0;recursiveResize=0;outlineConnect=0;" parent="1" vertex="1">
          <mxGeometry x="140" y="110" width="100" height="350" as="geometry" />
        </mxCell>
        <mxCell id="TtOdsmfDPJnBqmSysK0O-12" value="" style="html=1;points=[];perimeter=orthogonalPerimeter;" parent="TtOdsmfDPJnBqmSysK0O-4" vertex="1">
          <mxGeometry x="45" y="80" width="10" height="210" as="geometry" />
        </mxCell>
        <mxCell id="TtOdsmfDPJnBqmSysK0O-5" value="cache service" style="shape=umlLifeline;perimeter=lifelinePerimeter;whiteSpace=wrap;html=1;container=1;collapsible=0;recursiveResize=0;outlineConnect=0;" parent="1" vertex="1">
          <mxGeometry x="270" y="110" width="100" height="350" as="geometry" />
        </mxCell>
        <mxCell id="TtOdsmfDPJnBqmSysK0O-19" value="" style="html=1;points=[];perimeter=orthogonalPerimeter;" parent="TtOdsmfDPJnBqmSysK0O-5" vertex="1">
          <mxGeometry x="45" y="100" width="10" height="50" as="geometry" />
        </mxCell>
        <mxCell id="tz1BfMufGB--ORP11e-f-4" value="" style="html=1;points=[];perimeter=orthogonalPerimeter;" parent="TtOdsmfDPJnBqmSysK0O-5" vertex="1">
          <mxGeometry x="45" y="250.03" width="10" height="29.97" as="geometry" />
        </mxCell>
        <mxCell id="TtOdsmfDPJnBqmSysK0O-6" value="database" style="shape=umlLifeline;perimeter=lifelinePerimeter;whiteSpace=wrap;html=1;container=1;collapsible=0;recursiveResize=0;outlineConnect=0;" parent="1" vertex="1">
          <mxGeometry x="380" y="110" width="100" height="350" as="geometry" />
        </mxCell>
        <mxCell id="TtOdsmfDPJnBqmSysK0O-22" value="" style="html=1;points=[];perimeter=orthogonalPerimeter;" parent="TtOdsmfDPJnBqmSysK0O-6" vertex="1">
          <mxGeometry x="45" y="200" width="10" height="40" as="geometry" />
        </mxCell>
        <mxCell id="TtOdsmfDPJnBqmSysK0O-13" value="1.query" style="html=1;verticalAlign=bottom;startArrow=oval;endArrow=block;startSize=8;entryX=0;entryY=0.071;entryDx=0;entryDy=0;entryPerimeter=0;align=right;" parent="1" source="TtOdsmfDPJnBqmSysK0O-3" target="TtOdsmfDPJnBqmSysK0O-12" edge="1">
          <mxGeometry relative="1" as="geometry">
            <mxPoint x="145" y="190" as="sourcePoint" />
          </mxGeometry>
        </mxCell>
        <mxCell id="TtOdsmfDPJnBqmSysK0O-20" value="2.query" style="html=1;verticalAlign=bottom;endArrow=block;entryX=0;entryY=0.087;entryDx=0;entryDy=0;entryPerimeter=0;" parent="1" source="TtOdsmfDPJnBqmSysK0O-12" target="TtOdsmfDPJnBqmSysK0O-19" edge="1">
          <mxGeometry relative="1" as="geometry">
            <mxPoint x="245" y="210" as="sourcePoint" />
          </mxGeometry>
        </mxCell>
        <mxCell id="TtOdsmfDPJnBqmSysK0O-21" value="return if hit" style="html=1;verticalAlign=bottom;endArrow=open;dashed=1;endSize=8;" parent="1" edge="1">
          <mxGeometry relative="1" as="geometry">
            <mxPoint x="197" y="254" as="targetPoint" />
            <mxPoint x="313" y="254" as="sourcePoint" />
          </mxGeometry>
        </mxCell>
        <mxCell id="TtOdsmfDPJnBqmSysK0O-23" value="3.query if miss" style="html=1;verticalAlign=bottom;endArrow=block;entryX=0;entryY=0.188;entryDx=0;entryDy=0;entryPerimeter=0;exitX=1;exitY=0.614;exitDx=0;exitDy=0;exitPerimeter=0;" parent="1" source="TtOdsmfDPJnBqmSysK0O-12" target="TtOdsmfDPJnBqmSysK0O-22" edge="1">
          <mxGeometry relative="1" as="geometry">
            <mxPoint x="324" y="275" as="sourcePoint" />
          </mxGeometry>
        </mxCell>
        <mxCell id="TtOdsmfDPJnBqmSysK0O-24" value="return" style="html=1;verticalAlign=bottom;endArrow=open;dashed=1;endSize=8;entryX=1.1;entryY=0.714;entryDx=0;entryDy=0;entryPerimeter=0;exitX=-0.1;exitY=0.725;exitDx=0;exitDy=0;exitPerimeter=0;" parent="1" source="TtOdsmfDPJnBqmSysK0O-22" target="TtOdsmfDPJnBqmSysK0O-12" edge="1">
          <mxGeometry relative="1" as="geometry">
            <mxPoint x="324" y="303" as="targetPoint" />
            <mxPoint x="455" y="310" as="sourcePoint" />
          </mxGeometry>
        </mxCell>
        <mxCell id="TtOdsmfDPJnBqmSysK0O-29" value="" style="line;strokeWidth=1;fillColor=none;align=left;verticalAlign=middle;spacingTop=-1;spacingLeft=3;spacingRight=3;rotatable=0;labelPosition=right;points=[];portConstraint=eastwest;" parent="1" vertex="1">
          <mxGeometry x="120" y="260" width="360" height="8" as="geometry" />
        </mxCell>
        <mxCell id="TtOdsmfDPJnBqmSysK0O-31" value="if hit" style="text;align=center;fontStyle=1;verticalAlign=middle;spacingLeft=3;spacingRight=3;strokeColor=#b85450;rotatable=0;points=[[0,0.5],[1,0.5]];portConstraint=eastwest;fillColor=#f8cecc;" parent="1" vertex="1">
          <mxGeometry x="220" y="170" width="80" height="26" as="geometry" />
        </mxCell>
        <mxCell id="TtOdsmfDPJnBqmSysK0O-32" value="if miss" style="text;align=center;fontStyle=1;verticalAlign=middle;spacingLeft=3;spacingRight=3;strokeColor=#b85450;rotatable=0;points=[[0,0.5],[1,0.5]];portConstraint=eastwest;fillColor=#f8cecc;" parent="1" vertex="1">
          <mxGeometry x="220" y="270" width="80" height="26" as="geometry" />
        </mxCell>
        <mxCell id="tz1BfMufGB--ORP11e-f-5" value="4. caching" style="html=1;verticalAlign=bottom;startArrow=none;endArrow=block;startSize=8;exitX=1.1;exitY=0.857;exitDx=0;exitDy=0;exitPerimeter=0;startFill=0;" parent="1" target="tz1BfMufGB--ORP11e-f-4" edge="1">
          <mxGeometry relative="1" as="geometry">
            <mxPoint x="196" y="360" as="sourcePoint" />
          </mxGeometry>
        </mxCell>
        <mxCell id="tz1BfMufGB--ORP11e-f-7" value="" style="shape=umlLifeline;participant=umlActor;perimeter=lifelinePerimeter;whiteSpace=wrap;html=1;container=1;collapsible=0;recursiveResize=0;verticalAlign=top;spacingTop=36;outlineConnect=0;" parent="1" vertex="1">
          <mxGeometry x="80" y="530" width="20" height="210" as="geometry" />
        </mxCell>
        <mxCell id="tz1BfMufGB--ORP11e-f-8" value="Application" style="shape=umlLifeline;perimeter=lifelinePerimeter;whiteSpace=wrap;html=1;container=1;collapsible=0;recursiveResize=0;outlineConnect=0;" parent="1" vertex="1">
          <mxGeometry x="150" y="530" width="100" height="210" as="geometry" />
        </mxCell>
        <mxCell id="tz1BfMufGB--ORP11e-f-9" value="" style="html=1;points=[];perimeter=orthogonalPerimeter;" parent="tz1BfMufGB--ORP11e-f-8" vertex="1">
          <mxGeometry x="45" y="80" width="10" height="90" as="geometry" />
        </mxCell>
        <mxCell id="tz1BfMufGB--ORP11e-f-10" value="cache service" style="shape=umlLifeline;perimeter=lifelinePerimeter;whiteSpace=wrap;html=1;container=1;collapsible=0;recursiveResize=0;outlineConnect=0;" parent="1" vertex="1">
          <mxGeometry x="280" y="530" width="100" height="210" as="geometry" />
        </mxCell>
        <mxCell id="tz1BfMufGB--ORP11e-f-24" value="" style="html=1;points=[];perimeter=orthogonalPerimeter;" parent="tz1BfMufGB--ORP11e-f-10" vertex="1">
          <mxGeometry x="45" y="130" width="10" height="30" as="geometry" />
        </mxCell>
        <mxCell id="tz1BfMufGB--ORP11e-f-13" value="database" style="shape=umlLifeline;perimeter=lifelinePerimeter;whiteSpace=wrap;html=1;container=1;collapsible=0;recursiveResize=0;outlineConnect=0;" parent="1" vertex="1">
          <mxGeometry x="390" y="530" width="100" height="210" as="geometry" />
        </mxCell>
        <mxCell id="tz1BfMufGB--ORP11e-f-14" value="" style="html=1;points=[];perimeter=orthogonalPerimeter;" parent="tz1BfMufGB--ORP11e-f-13" vertex="1">
          <mxGeometry x="45" y="90" width="10" height="40" as="geometry" />
        </mxCell>
        <mxCell id="tz1BfMufGB--ORP11e-f-15" value="1.put" style="html=1;verticalAlign=bottom;startArrow=oval;endArrow=block;startSize=8;entryX=0;entryY=0.071;entryDx=0;entryDy=0;entryPerimeter=0;align=right;" parent="1" source="tz1BfMufGB--ORP11e-f-7" target="tz1BfMufGB--ORP11e-f-9" edge="1">
          <mxGeometry relative="1" as="geometry">
            <mxPoint x="155" y="610" as="sourcePoint" />
          </mxGeometry>
        </mxCell>
        <mxCell id="tz1BfMufGB--ORP11e-f-18" value="2. put" style="html=1;verticalAlign=bottom;endArrow=block;exitX=1.2;exitY=0.167;exitDx=0;exitDy=0;exitPerimeter=0;entryX=-0.1;entryY=0.125;entryDx=0;entryDy=0;entryPerimeter=0;" parent="1" source="tz1BfMufGB--ORP11e-f-9" target="tz1BfMufGB--ORP11e-f-14" edge="1">
          <mxGeometry relative="1" as="geometry">
            <mxPoint x="204" y="644" as="sourcePoint" />
            <mxPoint x="435" y="628" as="targetPoint" />
          </mxGeometry>
        </mxCell>
        <mxCell id="tz1BfMufGB--ORP11e-f-19" value="return" style="html=1;verticalAlign=bottom;endArrow=open;dashed=1;endSize=8;exitX=0.1;exitY=0.5;exitDx=0;exitDy=0;exitPerimeter=0;entryX=1.3;entryY=0.333;entryDx=0;entryDy=0;entryPerimeter=0;" parent="1" source="tz1BfMufGB--ORP11e-f-14" target="tz1BfMufGB--ORP11e-f-9" edge="1">
          <mxGeometry relative="1" as="geometry">
            <mxPoint x="206" y="650" as="targetPoint" />
            <mxPoint x="465" y="730" as="sourcePoint" />
          </mxGeometry>
        </mxCell>
        <mxCell id="tz1BfMufGB--ORP11e-f-25" value="3. delete cache key" style="html=1;verticalAlign=bottom;endArrow=block;entryX=0;entryY=0;exitX=1.1;exitY=0.556;exitDx=0;exitDy=0;exitPerimeter=0;" parent="1" source="tz1BfMufGB--ORP11e-f-9" target="tz1BfMufGB--ORP11e-f-24" edge="1">
          <mxGeometry relative="1" as="geometry">
            <mxPoint x="255" y="680" as="sourcePoint" />
          </mxGeometry>
        </mxCell>
        <mxCell id="tz1BfMufGB--ORP11e-f-26" value="return" style="html=1;verticalAlign=bottom;endArrow=open;dashed=1;endSize=8;exitX=0.1;exitY=0.833;entryX=1;entryY=0.833;entryDx=0;entryDy=0;entryPerimeter=0;exitDx=0;exitDy=0;exitPerimeter=0;" parent="1" source="tz1BfMufGB--ORP11e-f-24" target="tz1BfMufGB--ORP11e-f-9" edge="1">
          <mxGeometry relative="1" as="geometry">
            <mxPoint x="255" y="756" as="targetPoint" />
          </mxGeometry>
        </mxCell>
      </root>
    </mxGraphModel>
  </diagram>
</mxfile>
